<svg width="1238" height="1211" viewBox="0 0 1238 1211" fill="none" xmlns="http://www.w3.org/2000/svg">
<path opacity="0.0344828" d="M567.607 21.0999C575.211 19.8936 583.742 21.9985 593.091 27.2727C602.448 32.551 612.556 40.9684 623.236 52.2633C644.595 74.8517 668.084 108.78 692.261 151.56C740.607 237.105 791.595 357.84 833.745 493.482C875.895 629.124 901.208 753.932 908.071 846.058C911.503 892.129 910.317 929.972 904.344 956.896C901.357 970.359 897.184 981.042 891.833 988.654C886.487 996.26 880.004 1000.75 872.4 1001.95C864.796 1003.16 856.265 1001.05 846.916 995.78C837.56 990.502 827.451 982.084 816.771 970.789C795.412 948.201 771.924 914.272 747.746 871.492C699.4 785.948 648.412 665.213 606.262 529.571C564.113 393.929 538.8 269.12 531.936 176.995C528.504 130.924 529.69 93.0807 535.663 66.1563C538.65 52.6932 542.823 42.0101 548.174 34.3986C553.521 26.793 560.004 22.3062 567.607 21.0999Z" stroke="url(#paint0_linear_9_1742)" stroke-opacity="0.11" stroke-width="2"/>
<path opacity="0.0689655" d="M613.539 13.1374C621.33 12.592 629.748 15.3886 638.692 21.3673C647.644 27.351 657.066 36.486 666.799 48.4996C686.266 72.5258 706.842 107.89 727.3 152.021C768.211 240.268 808.559 363.362 838.626 500.378C868.694 637.393 882.775 762.326 881.248 853.544C880.484 899.161 875.817 936.292 867.325 962.275C863.079 975.267 857.891 985.425 851.796 992.462C845.707 999.493 838.753 1003.37 830.961 1003.91C823.17 1004.46 814.752 1001.66 805.808 995.681C796.856 989.697 787.434 980.562 777.7 968.548C758.234 944.522 737.658 909.159 717.2 865.027C676.289 776.78 635.941 653.686 605.874 516.67C575.806 379.655 561.725 254.722 563.252 163.504C564.016 117.887 568.683 80.7564 577.175 54.7731C581.421 41.781 586.609 31.6233 592.704 24.5864C598.793 17.5554 605.747 13.6828 613.539 13.1374Z" stroke="url(#paint1_linear_9_1742)" stroke-opacity="0.11" stroke-width="2"/>
<path opacity="0.103448" d="M660.296 8.94568C676.147 9.18943 693.3 22.877 710.783 48.2404C728.21 73.5213 745.716 110.051 762.301 155.197C795.465 245.476 824.866 369.992 842.623 507.338C860.38 644.683 863.122 768.79 853.216 858.406C848.263 903.221 840.151 939.357 829.205 964.201C818.223 989.127 804.548 1002.34 788.698 1002.1C772.847 1001.85 755.694 988.165 738.211 962.802C720.784 937.521 703.278 900.992 686.693 855.845C653.529 765.567 624.128 641.05 606.371 503.705C588.615 366.359 585.872 242.253 595.778 152.637C600.731 107.821 608.843 71.6858 619.789 46.8412C630.771 21.9155 644.446 8.70194 660.296 8.94568Z" stroke="url(#paint2_linear_9_1742)" stroke-opacity="0.11" stroke-width="2"/>
<path opacity="0.137931" d="M707.54 8.53333C723.522 10.114 739.568 25.0421 754.868 51.4641C770.123 77.8071 784.427 115.224 797.011 161.043C822.176 252.664 840.407 377.655 845.719 514.286C851.031 650.916 842.414 773.252 824.206 860.584C815.1 904.257 803.607 939.122 790.29 962.639C776.934 986.227 761.93 998.084 745.948 996.503C729.965 994.923 713.92 979.995 698.62 953.573C683.365 927.23 669.061 889.813 656.476 843.994C631.311 752.372 613.08 627.382 607.769 490.751C602.457 354.121 611.073 231.785 629.282 144.453C638.387 100.78 649.881 65.9146 663.198 42.3974C676.554 18.8097 691.558 6.95261 707.54 8.53333Z" stroke="url(#paint3_linear_9_1742)" stroke-opacity="0.11" stroke-width="2"/>
<path opacity="0.172414" d="M754.928 11.8809C770.919 14.7895 785.732 30.8435 798.735 58.1232C811.702 85.3278 822.695 123.347 831.185 169.489C848.16 261.757 855.083 386.271 847.909 521.147C840.735 656.023 820.826 775.656 794.455 860.04C781.267 902.239 766.479 935.569 750.894 957.58C735.265 979.652 719.044 990.061 703.054 987.152C687.063 984.244 672.25 968.19 659.247 940.91C646.279 913.705 635.286 875.686 626.797 829.544C609.821 737.276 602.899 612.762 610.073 477.886C617.247 343.01 637.155 223.377 663.527 138.994C676.715 96.7944 691.503 63.4645 707.088 41.4534C722.716 19.3815 738.937 8.97235 754.928 11.8809Z" stroke="url(#paint4_linear_9_1742)" stroke-opacity="0.11" stroke-width="2"/>
<path opacity="0.206897" d="M802.116 18.9374C817.991 23.154 831.458 40.2107 842.067 68.141C852.649 96.0001 860.248 134.333 864.577 180.447C873.235 272.659 868.797 395.749 849.193 527.844C829.588 659.938 798.539 775.96 764.205 856.753C747.035 897.157 729.066 928.698 711.331 949.036C693.551 969.426 676.234 978.306 660.359 974.09C644.484 969.873 631.017 952.816 620.408 924.886C609.827 897.027 602.228 858.694 597.898 812.58C589.241 720.368 593.678 597.278 613.283 465.184C632.887 333.089 663.937 217.068 698.271 136.274C715.44 95.8705 733.41 64.3291 751.144 43.991C768.924 23.6011 786.241 14.7208 802.116 18.9374Z" stroke="url(#paint5_linear_9_1742)" stroke-opacity="0.11" stroke-width="2"/>
<path opacity="0.241379" d="M848.764 29.6263C864.4 35.1205 876.417 53.0484 884.552 81.4177C892.668 109.72 896.816 148.074 896.953 193.81C897.227 285.265 881.463 405.994 849.578 534.302C817.692 662.611 775.739 774.138 733.705 850.726C712.684 889.028 691.67 918.541 671.921 937.052C652.125 955.606 633.843 962.888 618.207 957.394C602.571 951.9 590.555 933.972 582.419 905.603C574.303 877.301 570.155 838.946 570.018 793.21C569.744 701.755 585.508 581.026 617.394 452.718C649.279 324.409 691.233 212.883 733.267 136.294C754.287 97.9927 775.301 68.4794 795.05 49.9686C814.846 31.4139 833.128 24.1321 848.764 29.6263Z" stroke="url(#paint6_linear_9_1742)" stroke-opacity="0.11" stroke-width="2"/>
<path opacity="0.275862" d="M894.531 43.8462C909.806 50.5771 920.28 69.2379 925.881 97.8315C931.47 126.361 932.136 164.447 928.08 209.456C919.969 299.458 892.999 416.908 849.075 540.454C805.152 664 752.614 770.184 703.2 841.986C678.488 877.893 654.59 905.155 632.977 921.698C611.315 938.278 592.207 943.904 576.932 937.173C561.657 930.442 551.183 911.781 545.582 883.187C539.993 854.658 539.327 816.572 543.383 771.563C551.494 681.561 578.464 564.111 622.388 440.565C666.311 317.019 718.849 210.835 768.263 139.033C792.975 103.125 816.873 75.8642 838.486 59.3211C860.148 42.741 879.256 37.1153 894.531 43.8462Z" stroke="url(#paint7_linear_9_1742)" stroke-opacity="0.11" stroke-width="2"/>
<path opacity="0.310345" d="M939.09 61.4611C953.885 69.3777 962.735 88.6274 965.761 117.229C968.781 145.77 965.96 183.297 957.741 227.237C941.307 315.102 903.337 428.38 847.709 546.224C792.082 664.068 729.36 764.101 672.941 830.571C644.727 863.811 618.127 888.614 594.813 903.064C571.45 917.544 551.661 921.469 536.866 913.553C522.072 905.636 513.222 886.386 510.195 857.784C507.176 829.244 509.997 791.717 518.215 747.777C534.649 659.912 572.62 546.634 628.247 428.79C683.874 310.946 746.597 210.912 803.015 144.443C831.229 111.202 857.83 86.4002 881.143 71.9502C904.506 57.4693 924.296 53.5446 939.09 61.4611Z" stroke="url(#paint8_linear_9_1742)" stroke-opacity="0.11" stroke-width="2"/>
<path opacity="0.344828" d="M982.119 82.3162C996.317 91.3575 1003.48 111.048 1003.9 139.442C1004.33 167.777 998.046 204.46 985.728 246.997C961.096 332.057 912.414 440.302 845.507 551.547C778.599 662.792 706.17 755.914 643.176 816.546C611.674 846.867 582.573 869.022 557.737 881.269C532.849 893.542 512.53 895.734 498.331 886.693C484.133 877.651 476.974 857.961 476.545 829.567C476.118 801.232 482.404 764.549 494.722 722.012C519.354 636.952 568.036 528.707 634.944 417.462C701.851 306.217 774.281 213.094 837.274 152.463C868.776 122.142 897.877 99.9869 922.713 87.7395C947.601 75.4667 967.921 73.2748 982.119 82.3162Z" stroke="url(#paint9_linear_9_1742)" stroke-opacity="0.11" stroke-width="2"/>
<path opacity="0.37931" d="M1023.31 106.228C1036.8 116.325 1042.21 136.303 1040.04 164.275C1037.87 192.189 1028.17 227.75 1011.85 268.561C979.203 350.169 920.181 452.557 842.501 556.358C764.822 660.158 683.237 745.661 614.147 799.994C579.597 827.165 548.217 846.505 522.047 856.456C495.822 866.429 475.128 866.869 461.637 856.773C448.146 846.677 442.733 826.699 444.904 798.727C447.071 770.812 456.776 735.252 473.1 694.441C505.742 612.832 564.765 510.445 642.444 406.644C720.123 302.844 801.708 217.341 870.798 163.008C905.349 135.837 936.729 116.497 962.899 106.545C989.123 96.5731 1009.82 96.1324 1023.31 106.228Z" stroke="url(#paint10_linear_9_1742)" stroke-opacity="0.11" stroke-width="2"/>
<path opacity="0.413793" d="M1062.36 132.995C1075.04 144.067 1078.67 164.18 1073.91 191.519C1069.17 218.8 1056.12 252.968 1035.91 291.743C995.508 369.279 926.593 465.031 838.734 560.597C750.874 656.163 660.753 733.397 586.093 781.018C548.756 804.833 515.336 821.21 488.03 828.791C460.668 836.387 439.758 835.072 427.079 824C414.401 812.928 410.773 792.815 415.528 765.476C420.274 738.195 433.322 704.027 453.528 665.252C493.933 587.716 562.848 491.964 650.707 396.398C738.567 300.832 828.688 223.598 903.348 175.977C940.685 152.162 974.105 135.785 1001.41 128.204C1028.77 120.608 1049.68 121.923 1062.36 132.995Z" stroke="url(#paint11_linear_9_1742)" stroke-opacity="0.11" stroke-width="2"/>
<path opacity="0.448276" d="M1099 162.39C1110.77 174.351 1112.58 194.444 1105.28 220.943C1097.99 247.385 1081.7 279.901 1057.76 316.345C1009.9 389.219 931.62 477.607 834.249 564.212C736.877 650.816 638.906 719.193 559.242 759.74C519.404 780.017 484.196 793.308 455.962 798.46C427.668 803.623 406.704 800.561 394.936 788.6C383.168 776.638 381.353 756.545 388.657 730.047C395.945 703.605 412.238 671.089 436.172 634.645C484.032 561.771 562.315 473.383 659.687 386.778C757.059 300.173 855.03 231.797 934.693 191.25C974.532 170.973 1009.74 157.682 1037.97 152.53C1066.27 147.367 1087.23 150.429 1099 162.39Z" stroke="url(#paint12_linear_9_1742)" stroke-opacity="0.11" stroke-width="2"/>
<path opacity="0.482759" d="M1132.96 194.168C1143.72 206.925 1143.72 226.844 1133.92 252.303C1124.14 277.704 1104.73 308.321 1077.25 342.156C1022.3 409.815 935.24 490.166 829.097 567.15C722.954 644.134 617.877 703.134 533.816 736.299C491.778 752.884 455.051 762.986 426.103 765.67C397.091 768.36 376.233 763.575 365.468 750.818C354.702 738.062 354.71 718.142 364.508 692.684C374.284 667.282 393.699 636.666 421.179 602.831C476.13 535.172 563.187 454.82 669.33 377.836C775.473 300.852 880.55 241.853 964.611 208.688C1006.65 192.103 1043.38 182 1072.32 179.316C1101.34 176.626 1122.19 181.412 1132.96 194.168Z" stroke="url(#paint13_linear_9_1742)" stroke-opacity="0.11" stroke-width="2"/>
<path opacity="0.517241" d="M1164 228.064C1173.68 241.515 1171.85 261.109 1159.63 285.334C1147.45 309.502 1125.06 337.987 1094.24 368.956C1032.61 430.884 937.446 502.588 823.339 569.365C709.231 636.143 597.849 685.316 510.029 710.846C466.112 723.613 428.144 730.45 398.702 730.646C369.19 730.842 348.601 724.369 338.92 710.917C329.239 697.465 331.069 677.872 343.288 653.647C355.477 629.479 377.866 600.994 408.684 570.025C470.309 508.097 565.476 436.393 679.584 369.616C793.691 302.838 905.073 253.665 992.893 228.135C1036.81 215.368 1074.78 208.53 1104.22 208.335C1133.73 208.139 1154.32 214.612 1164 228.064Z" stroke="url(#paint14_linear_9_1742)" stroke-opacity="0.11" stroke-width="2"/>
<path opacity="0.551724" d="M1191.91 263.797C1200.43 277.839 1196.79 296.957 1182.25 319.766C1167.74 342.516 1142.54 368.652 1108.62 396.52C1040.79 452.246 938.235 514.756 817.032 570.819C695.829 626.882 578.987 665.854 488.076 683.555C442.613 692.406 403.693 695.926 373.981 693.631C344.192 691.331 324.03 683.22 315.507 669.179C306.985 655.138 310.621 636.019 325.169 613.211C339.679 590.46 364.872 564.325 398.794 536.457C466.624 480.731 569.179 418.221 690.383 362.158C811.586 306.095 928.428 267.122 1019.34 249.422C1064.8 240.57 1103.72 237.05 1133.43 239.345C1163.22 241.646 1183.38 249.756 1191.91 263.797Z" stroke="url(#paint15_linear_9_1742)" stroke-opacity="0.11" stroke-width="2"/>
<path opacity="0.586207" d="M1216.48 301.075C1223.78 315.596 1218.37 334.094 1201.6 355.313C1184.88 376.473 1157.07 400.061 1120.31 424.615C1046.79 473.714 937.623 526.555 810.245 571.476C682.868 616.398 561.456 644.872 468.146 654.608C421.483 659.476 381.907 659.652 352.149 654.884C322.31 650.102 302.729 640.418 295.429 625.896C288.129 611.375 293.541 592.877 310.309 571.658C327.031 550.498 354.838 526.911 391.604 502.357C465.125 453.257 574.287 400.416 701.665 355.495C829.042 310.574 950.454 282.099 1043.76 272.363C1090.43 267.495 1130 267.319 1159.76 272.087C1189.6 276.869 1209.18 286.554 1216.48 301.075Z" stroke="url(#paint16_linear_9_1742)" stroke-opacity="0.11" stroke-width="2"/>
<path opacity="0.62069" d="M1237.55 339.59C1243.57 354.478 1236.43 372.217 1217.57 391.683C1198.76 411.092 1168.55 431.952 1129.22 453.005C1050.57 495.104 935.627 537.872 803.045 571.31C670.462 604.748 545.404 622.508 450.404 624.204C402.896 625.052 362.964 621.882 333.388 614.676C303.724 607.448 284.876 596.264 278.852 581.377C272.828 566.489 279.973 548.75 298.836 529.283C317.643 509.875 347.851 489.015 387.184 467.962C465.835 425.863 580.775 383.094 713.357 349.657C845.939 316.219 970.998 298.459 1066 296.763C1113.51 295.914 1153.44 299.085 1183.01 306.291C1212.68 313.519 1231.53 324.702 1237.55 339.59Z" stroke="url(#paint17_linear_9_1742)" stroke-opacity="0.11" stroke-width="2"/>
<path opacity="0.655172" d="M1254.97 379.026C1259.68 394.165 1250.86 411.011 1230.04 428.577C1209.29 446.086 1176.91 464.059 1135.31 481.451C1052.13 516.229 932.285 548.599 795.506 570.298C658.728 591.997 530.974 598.907 435.008 592.55C387.016 589.371 347.033 582.878 317.863 573.289C288.598 563.668 270.629 551.072 265.925 535.933C261.221 520.795 270.041 503.949 290.858 486.383C311.607 468.874 343.987 450.901 385.587 433.509C468.771 398.731 588.613 366.361 725.391 344.662C862.17 322.963 989.923 316.053 1085.89 322.41C1133.88 325.589 1173.87 332.082 1203.03 341.671C1232.3 351.292 1250.27 363.888 1254.97 379.026Z" stroke="url(#paint18_linear_9_1742)" stroke-opacity="0.11" stroke-width="2"/>
<path opacity="0.689655" d="M1268.63 419.063C1270.31 426.692 1268.55 434.456 1263.52 442.281C1258.49 450.113 1250.21 457.955 1238.94 465.693C1216.41 481.169 1182.1 496.118 1138.55 509.716C1051.47 536.907 927.634 558.632 787.701 568.427C647.768 578.222 518.291 574.228 422.088 559.867C373.978 552.685 334.247 542.918 305.706 531.018C291.435 525.067 280.014 518.604 271.748 511.703C263.49 504.808 258.433 497.521 256.758 489.892C255.084 482.263 256.838 474.499 261.867 466.674C266.899 458.842 275.181 451 286.448 443.262C308.982 427.786 343.289 412.837 386.839 399.239C473.923 372.048 597.756 350.323 737.689 340.528C877.622 330.733 1007.1 334.727 1103.3 349.088C1151.41 356.271 1191.14 366.037 1219.68 377.938C1233.95 383.888 1245.38 390.351 1253.64 397.252C1261.9 404.147 1266.96 411.434 1268.63 419.063Z" stroke="url(#paint19_linear_9_1742)" stroke-opacity="0.11" stroke-width="2"/>
<path opacity="0.724138" d="M1278.44 459.371C1279.43 467.007 1276.95 474.492 1271.16 481.766C1265.37 489.047 1256.3 496.063 1244.22 502.726C1220.07 516.05 1184.1 527.861 1138.93 537.561C1048.61 556.958 921.731 567.872 779.708 565.688C637.685 563.504 507.471 548.637 411.764 526.379C363.902 515.248 324.726 502.282 297.031 488.16C283.182 481.099 272.256 473.775 264.553 466.287C256.856 458.805 252.431 451.214 251.444 443.579C250.457 435.944 252.933 428.459 258.722 421.184C264.515 413.903 273.588 406.887 285.662 400.224C309.809 386.9 345.781 375.09 390.95 365.389C481.272 345.992 608.152 335.078 750.176 337.262C892.199 339.446 1022.41 354.313 1118.12 376.571C1165.98 387.702 1205.16 400.669 1232.85 414.79C1246.7 421.851 1257.63 429.175 1265.33 436.663C1273.03 444.145 1277.45 451.736 1278.44 459.371Z" stroke="url(#paint20_linear_9_1742)" stroke-opacity="0.11" stroke-width="2"/>
<path opacity="0.758621" d="M1284.34 499.621C1284.64 507.204 1281.46 514.354 1274.95 521.023C1268.44 527.697 1258.65 533.835 1245.86 539.37C1220.28 550.441 1182.92 559.023 1136.47 564.752C1043.6 576.206 914.639 576.226 771.606 562.08C628.574 547.933 498.614 522.304 404.131 492.319C356.882 477.324 318.559 461.256 291.921 445.021C278.6 436.903 268.252 428.773 261.17 420.755C254.094 412.743 250.333 404.906 250.038 397.323C249.743 389.74 252.921 382.59 259.427 375.921C265.938 369.247 275.732 363.109 288.521 357.573C314.098 346.503 351.462 337.921 397.906 332.192C490.778 320.737 619.741 320.718 762.773 334.864C905.806 349.011 1035.77 374.639 1130.25 404.625C1177.5 419.62 1215.82 435.688 1242.46 451.923C1255.78 460.041 1266.13 468.171 1273.21 476.189C1280.29 484.201 1284.05 492.038 1284.34 499.621Z" stroke="url(#paint21_linear_9_1742)" stroke-opacity="0.11" stroke-width="2"/>
<path opacity="0.793103" d="M1286.3 539.484C1285.91 546.957 1282.05 553.72 1274.88 559.732C1267.7 565.748 1257.26 570.96 1243.85 575.327C1217.04 584.059 1178.57 589.347 1131.2 591.06C1036.49 594.485 906.425 583.609 763.472 557.607C620.519 531.605 491.802 495.411 399.263 457.926C352.986 439.18 315.808 420.133 290.43 401.908C277.74 392.794 268.048 383.92 261.641 375.433C255.239 366.951 252.17 358.929 252.568 351.455C252.965 343.981 256.82 337.219 263.994 331.207C271.172 325.191 281.613 319.978 295.02 315.612C321.832 306.879 360.304 301.592 407.669 299.879C502.384 296.454 632.448 307.329 775.401 333.331C918.354 359.333 1047.07 395.528 1139.61 433.013C1185.89 451.759 1223.06 470.806 1248.44 489.031C1261.13 498.145 1270.82 507.019 1277.23 515.506C1283.63 523.988 1286.7 532.01 1286.3 539.484Z" stroke="url(#paint22_linear_9_1742)" stroke-opacity="0.11" stroke-width="2"/>
<path opacity="0.827586" d="M1284.33 578.632C1283.25 585.941 1278.75 592.265 1270.96 597.575C1263.17 602.888 1252.16 607.135 1238.24 610.299C1210.39 616.626 1171.11 618.578 1123.18 616.262C1027.35 611.63 897.171 589.942 755.386 552.283C613.601 514.623 487.107 468.137 397.217 423.438C352.264 401.085 316.515 379.202 292.591 359.125C280.627 349.085 271.666 339.534 265.983 330.643C260.304 321.756 257.949 313.61 259.034 306.301C260.118 298.993 264.621 292.669 272.407 287.358C280.198 282.045 291.207 277.799 305.13 274.635C332.974 268.308 372.26 266.355 420.186 268.672C516.022 273.303 646.197 294.991 787.982 332.651C929.767 370.31 1056.26 416.796 1146.15 461.495C1191.1 483.849 1226.85 505.731 1250.78 525.808C1262.74 535.848 1271.7 545.399 1277.38 554.291C1283.06 563.178 1285.42 571.323 1284.33 578.632Z" stroke="url(#paint23_linear_9_1742)" stroke-opacity="0.11" stroke-width="2"/>
<path opacity="0.862069" d="M1278.46 616.745C1276.7 623.835 1271.58 629.674 1263.24 634.241C1254.9 638.811 1243.4 642.059 1229.07 643.996C1200.41 647.87 1160.61 646.472 1112.49 640.144C1016.26 627.491 886.963 595.155 747.425 546.124C607.887 497.093 484.579 440.67 398.022 389.096C354.736 363.305 320.689 338.754 298.401 316.978C287.255 306.088 279.093 295.933 274.178 286.705C269.264 277.48 267.64 269.273 269.402 262.183C271.163 255.093 276.278 249.254 284.619 244.687C292.964 240.117 304.457 236.869 318.79 234.932C347.452 231.058 387.253 232.456 435.376 238.784C531.604 251.437 660.898 283.773 800.436 332.804C939.974 381.835 1063.28 438.258 1149.84 489.832C1193.12 515.623 1227.17 540.174 1249.46 561.95C1260.61 572.84 1268.77 582.995 1273.68 592.223C1278.6 601.448 1280.22 609.655 1278.46 616.745Z" stroke="url(#paint24_linear_9_1742)" stroke-opacity="0.11" stroke-width="2"/>
<path opacity="0.896552" d="M1268.74 653.51C1266.32 660.329 1260.63 665.64 1251.8 669.43C1242.96 673.221 1231.07 675.446 1216.44 676.141C1187.18 677.531 1147.17 672.793 1099.21 662.502C1003.32 641.923 875.896 599.185 739.667 539.157C603.439 479.128 484.256 413.196 401.692 355.14C360.403 326.107 328.316 299.075 307.834 275.765C297.592 264.109 290.292 253.427 286.18 243.932C282.071 234.44 281.188 226.232 283.612 219.414C286.036 212.595 291.726 207.283 300.557 203.494C309.392 199.703 321.281 197.478 335.915 196.783C365.178 195.393 405.19 200.131 453.142 210.422C549.031 231.001 676.46 273.738 812.688 333.767C948.917 393.796 1068.1 459.728 1150.66 517.784C1191.95 546.816 1224.04 573.849 1244.52 597.158C1254.76 608.815 1262.06 619.496 1266.18 628.992C1270.28 638.484 1271.17 646.691 1268.74 653.51Z" stroke="url(#paint25_linear_9_1742)" stroke-opacity="0.11" stroke-width="2"/>
<path opacity="0.931035" d="M1255.28 688.623C1252.21 695.121 1245.99 699.866 1236.73 702.848C1227.48 705.832 1215.28 707.017 1200.46 706.465C1170.82 705.36 1130.9 697.318 1083.48 683.141C988.664 654.794 864.07 601.979 732.188 531.409C600.306 460.839 486.156 385.901 408.213 321.805C369.235 289.752 339.354 260.443 320.835 235.778C311.574 223.443 305.191 212.317 301.916 202.627C298.642 192.94 298.506 184.794 301.573 178.295C304.641 171.797 310.862 167.052 320.117 164.07C329.374 161.086 341.569 159.901 356.392 160.453C386.032 161.558 425.952 169.6 473.368 183.777C568.186 212.124 692.779 264.939 824.662 335.509C956.544 406.079 1070.69 481.017 1148.64 545.113C1187.61 577.166 1217.5 606.474 1236.01 631.14C1245.28 643.475 1251.66 654.601 1254.93 664.291C1258.21 673.978 1258.34 682.124 1255.28 688.623Z" stroke="url(#paint26_linear_9_1742)" stroke-opacity="0.11" stroke-width="2"/>
<path opacity="0.965517" d="M1238.18 721.794C1234.49 727.925 1227.78 732.067 1218.18 734.22C1208.57 736.374 1196.16 736.51 1181.26 734.714C1151.47 731.123 1111.95 719.838 1065.43 701.884C972.402 665.983 851.592 603.494 725.06 522.92C598.528 442.345 490.279 358.972 417.552 289.323C381.182 254.494 353.735 223.133 337.32 197.3C329.111 184.381 323.694 172.895 321.28 163.084C318.866 153.276 319.477 145.252 323.164 139.121C326.852 132.989 333.558 128.847 343.166 126.694C352.776 124.541 365.184 124.405 380.083 126.201C409.874 129.791 449.396 141.077 495.916 159.03C588.94 194.931 709.75 257.42 836.282 337.995C962.814 418.569 1071.06 501.943 1143.79 571.591C1180.16 606.421 1207.61 637.781 1224.02 663.614C1232.23 676.533 1237.65 688.02 1240.06 697.83C1242.48 707.639 1241.87 715.663 1238.18 721.794Z" stroke="url(#paint27_linear_9_1742)" stroke-opacity="0.11" stroke-width="2"/>
<path d="M1217.6 752.746C1213.32 758.466 1206.17 761.975 1196.29 763.282C1186.4 764.589 1173.87 763.674 1159.01 760.649C1129.3 754.599 1090.47 740.157 1045.2 718.563C954.68 675.381 838.574 603.694 718.356 513.728C598.138 423.763 496.615 332.588 429.657 257.918C396.172 220.577 371.367 187.403 357.182 160.599C350.088 147.195 345.679 135.436 344.143 125.579C342.609 115.725 343.961 107.883 348.241 102.163C352.522 96.4428 359.664 92.9341 369.551 91.6275C379.441 90.3206 391.966 91.2349 406.827 94.2604C436.543 100.31 475.366 114.752 520.635 136.346C611.158 179.528 727.264 251.216 847.482 341.181C967.7 431.146 1069.22 522.321 1136.18 596.991C1169.67 634.332 1194.47 667.506 1208.66 694.31C1215.75 707.714 1220.16 719.473 1221.69 729.33C1223.23 739.184 1221.88 747.026 1217.6 752.746Z" stroke="url(#paint28_linear_9_1742)" stroke-opacity="0.11" stroke-width="2"/>
<defs>
<linearGradient id="paint0_linear_9_1742" x1="605.275" y1="529.727" x2="824.843" y2="461.498" gradientUnits="userSpaceOnUse">
<stop stop-color="#DD7D38"/>
<stop offset="1" stop-color="#0E874E"/>
</linearGradient>
<linearGradient id="paint1_linear_9_1742" x1="604.876" y1="516.74" x2="832.279" y2="466.837" gradientUnits="userSpaceOnUse">
<stop stop-color="#DD7D38"/>
<stop offset="1" stop-color="#0E874E"/>
</linearGradient>
<linearGradient id="paint2_linear_9_1742" x1="605.372" y1="503.689" x2="839.24" y2="473.453" gradientUnits="userSpaceOnUse">
<stop stop-color="#DD7D38"/>
<stop offset="1" stop-color="#0E874E"/>
</linearGradient>
<linearGradient id="paint3_linear_9_1742" x1="606.774" y1="490.653" x2="845.431" y2="481.375" gradientUnits="userSpaceOnUse">
<stop stop-color="#DD7D38"/>
<stop offset="1" stop-color="#0E874E"/>
</linearGradient>
<linearGradient id="paint4_linear_9_1742" x1="609.089" y1="477.707" x2="850.53" y2="490.549" gradientUnits="userSpaceOnUse">
<stop stop-color="#DD7D38"/>
<stop offset="1" stop-color="#0E874E"/>
</linearGradient>
<linearGradient id="paint5_linear_9_1742" x1="612.316" y1="464.927" x2="854.207" y2="500.826" gradientUnits="userSpaceOnUse">
<stop stop-color="#DD7D38"/>
<stop offset="1" stop-color="#0E874E"/>
</linearGradient>
<linearGradient id="paint6_linear_9_1742" x1="616.45" y1="452.386" x2="856.157" y2="511.955" gradientUnits="userSpaceOnUse">
<stop stop-color="#DD7D38"/>
<stop offset="1" stop-color="#0E874E"/>
</linearGradient>
<linearGradient id="paint7_linear_9_1742" x1="621.472" y1="440.161" x2="856.13" y2="523.588" gradientUnits="userSpaceOnUse">
<stop stop-color="#DD7D38"/>
<stop offset="1" stop-color="#0E874E"/>
</linearGradient>
<linearGradient id="paint8_linear_9_1742" x1="627.365" y1="428.318" x2="853.976" y2="535.288" gradientUnits="userSpaceOnUse">
<stop stop-color="#DD7D38"/>
<stop offset="1" stop-color="#0E874E"/>
</linearGradient>
<linearGradient id="paint9_linear_9_1742" x1="634.1" y1="416.925" x2="849.664" y2="546.574" gradientUnits="userSpaceOnUse">
<stop stop-color="#DD7D38"/>
<stop offset="1" stop-color="#0E874E"/>
</linearGradient>
<linearGradient id="paint10_linear_9_1742" x1="641.643" y1="406.045" x2="843.302" y2="556.957" gradientUnits="userSpaceOnUse">
<stop stop-color="#DD7D38"/>
<stop offset="1" stop-color="#0E874E"/>
</linearGradient>
<linearGradient id="paint11_linear_9_1742" x1="649.954" y1="395.74" x2="835.136" y2="565.988" gradientUnits="userSpaceOnUse">
<stop stop-color="#DD7D38"/>
<stop offset="1" stop-color="#0E874E"/>
</linearGradient>
<linearGradient id="paint12_linear_9_1742" x1="658.986" y1="386.065" x2="825.524" y2="573.309" gradientUnits="userSpaceOnUse">
<stop stop-color="#DD7D38"/>
<stop offset="1" stop-color="#0E874E"/>
</linearGradient>
<linearGradient id="paint13_linear_9_1742" x1="668.685" y1="377.072" x2="814.905" y2="578.676" gradientUnits="userSpaceOnUse">
<stop stop-color="#DD7D38"/>
<stop offset="1" stop-color="#0E874E"/>
</linearGradient>
<linearGradient id="paint14_linear_9_1742" x1="678.999" y1="368.804" x2="803.754" y2="581.98" gradientUnits="userSpaceOnUse">
<stop stop-color="#DD7D38"/>
<stop offset="1" stop-color="#0E874E"/>
</linearGradient>
<linearGradient id="paint15_linear_9_1742" x1="689.864" y1="361.303" x2="792.526" y2="583.249" gradientUnits="userSpaceOnUse">
<stop stop-color="#DD7D38"/>
<stop offset="1" stop-color="#0E874E"/>
</linearGradient>
<linearGradient id="paint16_linear_9_1742" x1="701.215" y1="354.602" x2="781.629" y2="582.62" gradientUnits="userSpaceOnUse">
<stop stop-color="#DD7D38"/>
<stop offset="1" stop-color="#0E874E"/>
</linearGradient>
<linearGradient id="paint17_linear_9_1742" x1="712.982" y1="348.73" x2="771.389" y2="580.315" gradientUnits="userSpaceOnUse">
<stop stop-color="#DD7D38"/>
<stop offset="1" stop-color="#0E874E"/>
</linearGradient>
<linearGradient id="paint18_linear_9_1742" x1="725.095" y1="343.707" x2="762.043" y2="576.609" gradientUnits="userSpaceOnUse">
<stop stop-color="#DD7D38"/>
<stop offset="1" stop-color="#0E874E"/>
</linearGradient>
<linearGradient id="paint19_linear_9_1742" x1="737.475" y1="339.551" x2="753.731" y2="571.797" gradientUnits="userSpaceOnUse">
<stop stop-color="#DD7D38"/>
<stop offset="1" stop-color="#0E874E"/>
</linearGradient>
<linearGradient id="paint20_linear_9_1742" x1="750.047" y1="336.27" x2="746.512" y2="566.168" gradientUnits="userSpaceOnUse">
<stop stop-color="#DD7D38"/>
<stop offset="1" stop-color="#0E874E"/>
</linearGradient>
<linearGradient id="paint21_linear_9_1742" x1="762.734" y1="333.865" x2="740.37" y2="559.986" gradientUnits="userSpaceOnUse">
<stop stop-color="#DD7D38"/>
<stop offset="1" stop-color="#0E874E"/>
</linearGradient>
<linearGradient id="paint22_linear_9_1742" x1="775.454" y1="332.333" x2="735.229" y2="553.479" gradientUnits="userSpaceOnUse">
<stop stop-color="#DD7D38"/>
<stop offset="1" stop-color="#0E874E"/>
</linearGradient>
<linearGradient id="paint23_linear_9_1742" x1="788.129" y1="331.661" x2="730.978" y2="546.828" gradientUnits="userSpaceOnUse">
<stop stop-color="#DD7D38"/>
<stop offset="1" stop-color="#0E874E"/>
</linearGradient>
<linearGradient id="paint24_linear_9_1742" x1="800.677" y1="331.833" x2="727.473" y2="540.169" gradientUnits="userSpaceOnUse">
<stop stop-color="#DD7D38"/>
<stop offset="1" stop-color="#0E874E"/>
</linearGradient>
<linearGradient id="paint25_linear_9_1742" x1="813.023" y1="332.825" x2="724.557" y2="533.588" gradientUnits="userSpaceOnUse">
<stop stop-color="#DD7D38"/>
<stop offset="1" stop-color="#0E874E"/>
</linearGradient>
<linearGradient id="paint26_linear_9_1742" x1="825.088" y1="334.605" x2="722.069" y2="527.127" gradientUnits="userSpaceOnUse">
<stop stop-color="#DD7D38"/>
<stop offset="1" stop-color="#0E874E"/>
</linearGradient>
<linearGradient id="paint27_linear_9_1742" x1="836.798" y1="337.138" x2="719.851" y2="520.788" gradientUnits="userSpaceOnUse">
<stop stop-color="#DD7D38"/>
<stop offset="1" stop-color="#0E874E"/>
</linearGradient>
<linearGradient id="paint28_linear_9_1742" x1="848.081" y1="340.38" x2="717.757" y2="514.529" gradientUnits="userSpaceOnUse">
<stop stop-color="#DD7D38"/>
<stop offset="1" stop-color="#0E874E"/>
</linearGradient>
</defs>
</svg>
